# xmcd
#
# Track frame offsets: 
#        150
#        16874
#        33502
#        49730
#        68423
#        84061
#        102283
#        117609
#        133613
#        147785
#
# Disc length: 2228 seconds
#
# Revision: 0
# Processed by: cddbd v1.5.2PL0 Copyright (c) Steve Scherf et al.
# Submitted via: ExactAudioCopyFreeDBPlugin 1.0
#
DISCID=7a08b20a
DTITLE=Suzanne - Colour of summer
DYEAR=2006
DGENRE=Pop
TTITLE0=Ray of hope
TTITLE1=Colour of summer
TTITLE2=Sunshine through a prism
TTITLE3=Can't carry on
TTITLE4=Fool's lullaby
TTITLE5=Everything I've ever loved
TTITLE6=Reeling in the years
TTITLE7=Synchronicity
TTITLE8=Love is the roughest toughest game
TTITLE9=I'll never lose you
EXTD=
EXTT0=
EXTT1=
EXTT2=
EXTT3=
EXTT4=
EXTT5=
EXTT6=
EXTT7=
EXTT8=
EXTT9=
PLAYORDER=
